<svg xmlns="http://www.w3.org/2000/svg" xmlns:xlink="http://www.w3.org/1999/xlink" version="1.1" id="Layer_1" x="0px" y="0px" enable-background="new 0 0 608 672" xml:space="preserve" viewBox="1 28.71 604.49 230.78">
<path fill="currentColor" opacity="1.000000" stroke="none" d=" M1.000000,250.449982   C6.396414,245.826385 9.290003,239.662155 13.104420,234.298752   C31.763103,208.063049 50.071205,181.578293 68.565033,155.224945   C87.055367,128.876602 105.620338,102.580620 124.139542,76.252510   C124.512825,75.721817 124.726280,75.078712 124.992371,74.533020   C124.137665,72.780670 122.615456,73.426743 121.429733,73.423798   C99.439468,73.369141 77.435158,72.895172 55.463810,73.536911   C41.933620,73.932114 32.401222,80.203514 29.197412,93.633469   C28.196823,97.827805 27.089018,101.999023 26.197891,106.216232   C25.471134,109.655556 23.516327,110.911919 20.134218,110.280151   C16.475513,109.596710 18.301741,107.226448 18.461555,105.255127   C19.238209,95.675110 19.934776,86.088585 20.660063,76.504402   C21.010252,71.876869 21.418749,67.252724 21.686184,62.620426   C21.809269,60.488445 22.891998,59.688202 24.868820,59.694794   C26.201210,59.699238 27.533743,59.642513 28.866213,59.642483   C73.846596,59.641468 118.826996,59.637764 163.807358,59.667004   C165.755432,59.668270 167.794876,59.230919 170.684113,60.925102   C127.927452,122.101562 85.248085,183.167435 42.621349,244.158005   C44.500835,246.404846 46.463818,245.597549 48.141830,245.601868   C72.630997,245.664948 97.120369,245.656555 121.609688,245.650467   C142.568008,245.645248 153.898880,237.898087 161.522522,218.349777   C162.727234,215.260651 163.823227,212.128815 164.948898,209.009277   C166.768723,203.966003 168.114563,203.549545 173.110596,206.716171   C170.269897,222.572159 167.216568,238.492584 164.683350,254.495346   C163.997009,258.831055 161.949417,259.444763 158.339691,259.412872   C145.679535,259.301056 133.017761,259.383850 120.356636,259.370697   C80.875648,259.329712 41.394684,259.278595 1.456854,259.115723   C1.000000,256.299988 1.000000,253.599976 1.000000,250.449982  z"/>
<path fill="currentColor" opacity="1.000000" stroke="none" d=" M384.728455,62.745705   C394.634430,65.265533 403.216125,69.712791 410.285736,76.369186   C417.650360,83.303345 422.672424,91.968079 424.166473,102.154160   C426.349915,117.040855 423.782288,131.033951 413.912476,142.769058   C405.762451,152.459274 394.667755,157.771118 382.674774,161.281509   C381.724945,161.559525 380.766571,161.810883 379.825592,162.115952   C379.218506,162.312759 378.635834,162.584976 377.444855,163.063354   C381.557831,168.970139 385.424774,174.677948 389.449097,180.272583   C399.326538,194.004379 409.287781,207.675827 419.194122,221.386887   C429.271881,235.335159 440.324829,247.949493 458.513580,251.273956   C460.616302,251.658279 462.760284,251.551636 464.869904,252.353745   C467.152557,253.221664 467.331024,254.698029 467.274261,256.631256   C467.207886,258.892700 465.768188,259.338379 463.917542,259.337524   C447.751373,259.329987 431.585175,259.313446 415.419006,259.329834   C412.683075,259.332611 411.233551,257.460052 409.879608,255.586807   C389.769287,227.763687 369.654175,199.943771 349.664001,172.034409   C347.196075,168.588776 344.485992,167.175888 340.145569,167.270767   C326.348907,167.572357 326.339020,167.385880 326.336914,181.254532   C326.334595,196.420990 326.435577,211.588333 326.289856,226.753357   C326.249420,230.961044 326.942200,235.046661 327.706421,239.086014   C329.310638,247.565628 335.511963,252.107224 345.461029,252.625427   C347.456207,252.729340 349.460510,252.695068 351.459930,252.671036   C353.727478,252.643784 355.298889,253.164780 355.313385,255.964661   C355.327606,258.704651 353.918549,259.368195 351.563904,259.348907   C346.897827,259.310669 342.231018,259.373627 337.564514,259.373962   C317.231445,259.375488 296.898407,259.369751 276.565338,259.365753   C275.398712,259.365509 274.231995,259.365875 273.065521,259.351044   C270.820221,259.322510 268.719604,259.339691 268.685638,256.072296   C268.652313,252.868530 270.584442,252.678970 272.930481,252.663315   C275.093201,252.648880 277.306061,252.802628 279.409302,252.411499   C293.651886,249.762863 296.291168,244.128006 296.427032,231.895264   C296.958191,184.068436 296.801819,136.231339 296.495483,88.400658   C296.449188,81.170349 296.217377,72.997772 287.844788,69.129730   C283.429932,67.090118 278.727997,66.169060 273.811432,66.335915   C271.361694,66.419052 268.597443,66.793388 268.711090,62.789658   C268.818115,59.019741 271.504089,59.680851 273.694580,59.678188   C303.194153,59.642353 332.695984,59.457432 362.191742,59.795437   C369.575317,59.880051 376.939209,61.685585 384.728455,62.745705  M326.335083,112.499954   C326.337860,125.316437 326.415253,138.133621 326.293579,150.948929   C326.261108,154.364273 327.444489,155.759155 330.929352,155.675217   C337.392029,155.519577 343.852203,155.860184 350.279358,154.642456   C360.399658,152.725021 370.011353,149.481659 377.548859,142.279022   C387.197510,133.059128 391.156342,121.657318 389.765717,108.143959   C388.321625,94.111053 381.744324,83.891029 369.429932,77.186134   C357.096039,70.470634 344.204834,71.912231 331.124817,74.109009   C327.218567,74.765053 326.241486,76.464134 326.290955,80.042076   C326.435944,90.526237 326.338318,101.013741 326.335083,112.499954  z"/>
<path fill="currentColor" opacity="1.000000" stroke="none" d=" M594.526550,100.567001   C601.519287,116.245865 605.005859,132.285217 605.392944,149.090988   C605.873413,169.949051 604.737366,190.542130 597.419922,210.370728   C590.529297,229.042877 579.633545,244.439987 561.447693,253.606720   C552.892273,257.919128 543.684326,259.513306 533.998657,259.496674   C522.595886,259.477112 511.579437,258.766968 501.083405,253.558655   C484.396484,245.278320 473.811920,231.684753 466.762360,215.039032   C457.021362,192.038086 455.314514,167.685852 456.893311,143.223312   C458.186981,123.179657 463.263428,103.892509 475.367767,87.214653   C488.259857,69.451431 505.449249,59.862019 527.708801,59.575356   C538.942688,59.430683 549.895569,60.156948 560.356567,64.705574   C573.893005,70.591484 583.224548,80.888008 590.644714,93.225067   C592.006287,95.488922 593.161072,97.877174 594.526550,100.567001  M556.797424,91.703461   C554.133118,86.915390 551.656982,81.926895 547.131775,78.577751   C532.801208,67.971649 514.228516,72.911041 505.598572,92.046021   C499.175507,106.287735 496.877319,121.672447 496.542938,137.076401   C496.175629,153.998993 495.554932,170.963821 497.210876,187.918701   C498.310089,199.172958 499.953857,210.222763 503.318970,221.026611   C506.129486,230.050003 510.881256,237.701645 519.006775,242.711365   C523.680420,245.592865 528.830139,247.058197 534.626221,246.165787   C547.096008,244.245880 553.480469,235.780579 557.607910,225.111557   C563.108765,210.892502 565.062439,195.832520 565.424866,180.779388   C565.715027,168.727188 566.783569,156.723618 566.009277,144.526947   C564.878662,126.719063 563.493652,109.191330 556.797424,91.703461  z"/>
<path fill="currentColor" opacity="1.000000" stroke="none" d=" M237.349518,178.000092   C237.349609,196.992142 237.455948,215.485031 237.311218,233.975937   C237.216736,246.044098 241.512543,252.340179 253.887436,252.665894   C256.077057,252.723526 257.270172,253.431244 257.313446,255.854660   C257.360474,258.489441 256.146881,259.370056 253.684586,259.364990   C233.860138,259.324158 214.035614,259.325134 194.211105,259.327667   C192.090393,259.327942 190.766922,258.703857 190.694504,256.227966   C190.618149,253.617691 191.768997,252.878403 194.231537,252.624603   C206.727234,251.336700 210.638535,246.908340 210.648026,234.273560   C210.667160,208.784546 210.607025,183.295319 210.708679,157.806702   C210.722198,154.421326 210.043869,151.173126 209.341904,147.980850   C207.961090,141.701370 203.410828,140.021500 195.436157,142.199142   C193.201111,142.809464 190.669540,144.409149 189.518021,140.379135   C188.761566,137.731720 188.696213,136.252655 191.692062,135.053772   C203.720383,130.240295 215.586761,125.020744 227.629700,120.245590   C234.497131,117.522598 237.344360,119.697403 237.347092,127.021812   C237.353363,143.847900 237.349152,160.673996 237.349518,178.000092  z"/>
<path fill="currentColor" opacity="1.000000" stroke="none" d=" M231.538696,81.517181   C229.564682,84.276711 228.435974,87.062881 227.602737,89.923943   C226.954346,92.150330 225.903625,93.377739 223.454132,93.322823   C221.295151,93.274414 220.219498,92.301750 219.552505,90.255058   C215.490509,77.790794 207.565063,69.045731 194.893845,64.894203   C192.859787,64.227776 191.666458,62.779987 191.694717,60.380962   C191.722794,57.995224 193.313324,57.263702 195.076431,56.684967   C207.449951,52.623390 215.600357,44.321526 219.973618,32.137897   C220.594620,30.407810 221.482880,28.821609 223.773331,28.719765   C226.306900,28.607109 227.383606,30.223955 228.036880,32.182667   C232.135269,44.470791 240.302750,52.752338 252.428436,57.189011   C254.307587,57.876579 256.383942,58.351833 256.225922,61.039467   C256.076813,63.575272 254.555481,64.804352 252.246643,65.480186   C243.390762,68.072449 236.969177,73.867722 231.538696,81.517181  z"/>
<path fill="currentColor" opacity="1.000000" stroke="none" d=" M531.897461,131.733948   C534.573486,132.139130 534.801086,134.089539 535.485107,135.762573   C539.563843,145.739029 546.446655,152.992889 556.389587,157.327209   C558.590820,158.286804 561.389648,158.993073 561.205322,162.273758   C561.030212,165.389862 558.401062,165.966141 556.114563,166.975403   C546.295288,171.309723 538.885315,178.022293 535.155884,188.374222   C534.495972,190.205917 533.713745,192.255035 531.166809,192.238846   C528.625366,192.222672 527.432373,190.643677 526.574341,188.426529   C522.458008,177.790115 514.977173,170.459457 504.457550,166.130569   C502.440308,165.300461 500.638245,164.273590 500.647522,161.501816   C500.656372,158.858994 502.455780,158.139801 504.303040,157.412567   C514.730957,153.307388 522.142517,146.127090 526.596252,135.843750   C527.519714,133.711609 528.453796,131.422012 531.897461,131.733948  z"/>
</svg>