<?xml version="1.0" encoding="UTF-8"?>
<svg id="Layer_2" data-name="Layer 2" xmlns="http://www.w3.org/2000/svg" viewBox="0 0 731.44 983.92">
  <defs>
    <style>
      .cls-1 {
        fill: none;
        stroke: #fff;
        stroke-miterlimit: 10;
        stroke-width: 2px;
      }
    </style>
  </defs>
  <g id="Layer_9" data-name="Layer 9">
    <path class="cls-1" d="M688.33,240.22c-27.08-71.84-67.18-129.42-120.33-172.75C514.85,24.16,448.4,2.5,368.68,2.5s-148.39,21.41-203.02,64.23c-54.63,42.82-95.49,100.17-122.55,172.01C16.02,310.61,2.5,390.33,2.5,477.94c0,67.92,7.13,132.15,21.41,192.68,14.26,60.54,36.41,114.2,66.44,160.94,30.02,46.77,67.92,83.42,113.69,110,45.77,26.57,100.15,39.86,163.15,39.86,77.75,0,143.45-21.15,197.12-63.49,53.64-42.31,94.49-101.14,122.55-176.45,28.05-75.3,42.08-162.65,42.08-262.08,0-87.6-13.54-167.33-40.6-239.19Z"/>
    <path class="cls-1" d="M536.26,641.83c-4.43,53.15-12.55,100.91-24.36,143.22-11.81,42.33-29.3,76.04-52.42,101.14-23.14,25.1-53.89,37.65-92.28,37.65-34.47,0-65.22-12.78-92.28-38.39-27.08-25.58-48.24-70.62-63.49-135.1-15.27-64.46-22.89-154.78-22.89-270.94,0-103.36,7.38-185.53,22.15-246.58,14.77-61.02,35.67-104.83,62.75-131.41,27.06-26.58,58.81-39.87,95.24-39.87s67.41,13.29,93.02,39.87c25.58,26.58,45.52,70.39,59.8,131.41,14.26,61.05,21.41,143.22,21.41,246.58,0,55.14-2.22,109.26-6.64,162.42Z"/>
    <path class="cls-1" d="M415.88,425.65c-23.68-23.68-39.84-77.7-46.6-103.96-.95-3.68-6.17-3.68-7.12,0-6.76,26.27-22.92,80.28-46.6,103.96-23.68,23.68-77.7,39.84-103.96,46.6-3.68.95-3.68,6.17,0,7.12,26.27,6.76,80.28,22.92,103.96,46.6,23.68,23.68,39.84,77.7,46.6,103.96.95,3.68,6.17,3.68,7.12,0,6.76-26.27,22.92-80.28,46.6-103.96,23.68-23.68,77.7-39.84,103.96-46.6,3.68-.95,3.68-6.17,0-7.12-26.27-6.76-80.28-22.92-103.96-46.6Z"/>
  </g>
</svg>